<svg id="Layer_1" enable-background="new 0 0 512 512" height="512" viewBox="0 0 512 512" width="512" xmlns="http://www.w3.org/2000/svg"><g><path d="m256 80.333c-105.891 0-191.733 85.842-191.733 191.733s85.842 191.734 191.733 191.734 191.733-85.842 191.733-191.733-85.842-191.734-191.733-191.734zm0 353.467c-89.323 0-161.733-72.411-161.733-161.733s72.41-161.734 161.733-161.734 161.733 72.411 161.733 161.733-72.41 161.734-161.733 161.734z" fill="#005b62"/><path d="m256 110.333c89.323 0 161.733 72.411 161.733 161.733s-72.41 161.734-161.733 161.734v30c105.891 0 191.733-85.842 191.733-191.733s-85.842-191.734-191.733-191.734z" fill="#00191a"/><g><g><ellipse cx="95.333" cy="55.7" fill="#f5a582" rx="55.7" ry="55.7" transform="matrix(.707 -.707 .707 .707 -11.463 83.725)"/><path d="m175.667 238.867h-160.667c-8.284 0-15-6.716-15-15v-17.133c0-52.567 42.767-95.334 95.333-95.334s95.333 42.767 95.333 95.333v17.133c.001 8.285-6.715 15.001-14.999 15.001z" fill="#ff5c5c"/><path d="m95.333 0c30.713 0 55.7 24.987 55.7 55.7s-24.987 55.7-55.7 55.7z" fill="#e1876e"/><path d="m175.667 238.867c8.284 0 15-6.716 15-15v-17.133c0-52.567-42.766-95.333-95.333-95.333v127.467h80.333z" fill="#ea1c81"/></g><g><ellipse cx="416.667" cy="55.7" fill="#c3551e" rx="55.7" ry="55.7" transform="matrix(.707 -.707 .707 .707 82.653 310.942)"/><path d="m497 238.867h-160.667c-8.284 0-15-6.716-15-15v-17.133c0-52.567 42.767-95.333 95.333-95.333s95.334 42.766 95.334 95.332v17.133c0 8.285-6.716 15.001-15 15.001z" fill="#ffcb00"/><path d="m416.667 0c30.713 0 55.7 24.987 55.7 55.7s-24.987 55.7-55.7 55.7z" fill="#9b3c0f"/><path d="m497 238.867c8.284 0 15-6.716 15-15v-17.133c0-52.567-42.766-95.333-95.333-95.333v127.467h80.333z" fill="#ffa07a"/></g><g><ellipse cx="256" cy="328.833" fill="#ffdcd7" rx="55.7" ry="55.7" transform="matrix(.707 -.707 .707 .707 -157.54 277.332)"/><path d="m336.333 512h-160.666c-8.284 0-15-6.716-15-15v-17.133c0-52.567 42.767-95.333 95.333-95.333s95.333 42.767 95.333 95.333v17.133c0 8.284-6.716 15-15 15z" fill="#00e4ef"/><path d="m256 273.133c30.713 0 55.7 24.987 55.7 55.7s-24.987 55.7-55.7 55.7z" fill="#ffb9be"/><path d="m336.333 512c8.284 0 15-6.716 15-15v-17.133c0-52.567-42.766-95.333-95.333-95.333v127.466z" fill="#5ecbf1"/></g></g></g></svg>