<svg id="Capa_1" enable-background="new 0 0 512 512" height="512" viewBox="0 0 512 512" width="512" xmlns="http://www.w3.org/2000/svg"><g><g><path d="m502 256c0 135.96-110.02 246-246 246-135.96 0-246-110.02-246-246 0-135.96 110.02-246 246-246 135.96 0 246 110.02 246 246z" fill="#ffed99"/><path d="m345.43 316h-178.86c-19.02 21.23-30.57 49.26-30.57 80h240c0-30.74-11.55-58.77-30.57-80z" fill="#a57e63"/><path d="m345.43 316h-178.86c21.96-24.55 53.89-40 89.43-40s67.47 15.45 89.43 40z" fill="#fff5f5"/><path d="m325.3 396h-138.6c13.83-23.91 39.69-40 69.3-40s55.47 16.09 69.3 40z" fill="#ff7d97"/></g><g><path d="m126 396c0 5.523 4.477 10 10 10h240c5.522 0 10-4.477 10-10 0-72.38-58.878-130-130-130-72.153 0-130 58.599-130 130zm193.204-90h-126.41c18.359-12.885 40.415-20 63.206-20 22.79 0 44.844 7.114 63.204 20zm-112.162 80c12.932-12.618 30.481-20 48.958-20s36.025 7.382 48.958 20zm123.801 0c-16.619-24.812-44.778-40-74.843-40s-58.224 15.188-74.843 40h-34.705c2-22.016 10.574-42.904 24.703-60h169.688c14.128 17.093 22.703 37.982 24.703 60z"/><path d="m306.768 173.859c-1.077-5.417-6.345-8.939-11.759-7.856-5.417 1.077-8.935 6.342-7.856 11.759 5.56 27.95 30.309 48.238 58.847 48.238 14.543 0 28.572-5.268 39.505-14.834 4.156-3.637 4.578-9.955.94-14.111-3.636-4.157-9.955-4.577-14.11-.941-7.286 6.375-16.639 9.886-26.335 9.886-19.027 0-35.527-13.517-39.232-32.141z"/><path d="m126.495 211.166c10.933 9.566 24.963 14.834 39.505 14.834 28.538 0 53.287-20.287 58.848-48.239 1.078-5.417-2.439-10.681-7.856-11.759-5.416-1.081-10.681 2.44-11.759 7.856-3.706 18.625-20.206 32.142-39.233 32.142-9.697 0-19.049-3.511-26.335-9.886-4.156-3.636-10.474-3.216-14.111.941-3.637 4.156-3.215 10.474.941 14.111z"/><path d="m386 156c0-5.523-4.478-10-10-10-16.542 0-30-13.458-30-30 0-5.523-4.478-10-10-10s-10 4.477-10 10c0 27.57 22.43 50 50 50 5.522 0 10-4.477 10-10z"/><path d="m136 166c27.57 0 50-22.43 50-50 0-5.523-4.477-10-10-10s-10 4.477-10 10c0 16.542-13.458 30-30 30-5.523 0-10 4.477-10 10s4.477 10 10 10z"/><circle cx="82" cy="430" r="10"/><path d="m256 0c-141.582 0-256 114.384-256 256 0 52.164 15.56 102.336 44.997 145.091 3.133 4.55 9.36 5.697 13.908 2.566 4.549-3.132 5.698-9.359 2.566-13.908-27.131-39.404-41.471-85.654-41.471-133.749 0-130.131 105.869-236 236-236s236 105.869 236 236-105.869 236-236 236c-48.094 0-94.344-14.34-133.749-41.47-4.549-3.134-10.776-1.984-13.908 2.565s-1.983 10.775 2.566 13.908c42.757 29.437 92.928 44.997 145.091 44.997 68.436 0 132.738-26.616 181.063-74.944 48.324-48.326 74.937-112.626 74.937-181.056 0-141.582-114.384-256-256-256z"/></g></g></svg>